<?xml version="1.0" encoding="UTF-8" standalone="no"?>
<!-- Created with Inkscape (http://www.inkscape.org/) -->
<svg width="200mm" height="200mm" viewBox="0 0 200 200" version="1.1" id="svg1" xml:space="preserve" inkscape:version="1.1.2 (b8e25be833, 2022-02-05)" sodipodi:docname="DD-Main-Logo.svg" inkscape:export-filename="DrinkingDojo_Logo_Eroded.png" inkscape:export-xdpi="96" inkscape:export-ydpi="96" xmlns:inkscape="http://www.inkscape.org/namespaces/inkscape" xmlns:sodipodi="http://sodipodi.sourceforge.net/DTD/sodipodi-0.dtd" xmlns="http://www.w3.org/2000/svg" xmlns:svg="http://www.w3.org/2000/svg"><script xmlns=""/><sodipodi:namedview id="namedview1" pagecolor="#505050" bordercolor="#ffffff" borderopacity="1" inkscape:showpageshadow="0" inkscape:pageopacity="0" inkscape:pagecheckerboard="1" inkscape:deskcolor="#505050" inkscape:document-units="mm" inkscape:zoom="0.79055988" inkscape:cx="187.84156" inkscape:cy="351.64952" inkscape:window-width="1920" inkscape:window-height="1017" inkscape:window-x="-8" inkscape:window-y="-8" inkscape:window-maximized="1" inkscape:current-layer="layer1" showguides="true" inkscape:pageshadow="0" showgrid="false"/><defs id="defs1"><filter style="color-interpolation-filters:sRGB" id="filter8" inkscape:label="filter1"/><filter inkscape:label="Burnt edges" inkscape:menu="Textures" inkscape:menu-tooltip="Torn edges with a dark inner blur" height="1.2600163" y="-0.13000813" width="1.2192777" x="-0.10963887" id="filter21"><feTurbulence baseFrequency="0.097000000000000045" numOctaves="5" type="fractalNoise" id="feTurbulence19" result="result6"/><feDisplacementMap scale="23.125" result="result5" xChannelSelector="R" in="SourceGraphic" yChannelSelector="G" id="feDisplacementMap19" in2="result6"/><feComposite in="SourceGraphic" operator="in" result="fbSourceGraphic" id="feComposite19" in2="result5"/><feColorMatrix result="fbSourceGraphicAlpha" in="fbSourceGraphic" values="0 0 0 -1 0 0 0 0 -1 0 0 0 0 -1 0 0 0 0 1 0" id="feColorMatrix19"/><feGaussianBlur result="result6" stdDeviation="8" in="fbSourceGraphic" id="feGaussianBlur19"/><feComposite in2="result6" operator="atop" in="fbSourceGraphic" result="result8" id="feComposite20"/><feComposite in="result8" in2="fbSourceGraphicAlpha" operator="atop" result="result9" id="feComposite21"/></filter></defs><g inkscape:label="Layer 1" inkscape:groupmode="layer" id="layer1" style="display:inline"><rect style="fill:#ff9800;fill-opacity:1;stroke-width:0.313408" id="rect1" width="200" height="200" x="0" y="0"/><rect style="display:inline;fill:#fafafa;fill-opacity:1;stroke-width:4.09509;stroke-linecap:round;stroke-miterlimit:1;paint-order:markers stroke fill" id="rect2" width="75.677002" height="36.05492" x="63.635513" y="53.856678"/><path style="display:inline;fill:#0a0a0a;fill-opacity:1;stroke-width:1.00747" d="m 131.20596,164.92514 0.117,-71.267035 c 0,0 -11.87293,2.625362 -31.396616,2.307521 -19.410124,-0.31598 -30.00702,-2.064801 -30.00702,-2.064801 l -0.556059,70.844045 c -0.424533,6.51393 -4.551151,10.02638 -10.169133,10.017 -5.89919,-0.0101 -9.613277,-4.9134 -9.761849,-9.71047 0,0 0.301682,-48.90755 0.240962,-74.549353 0,0 -4.129039,-1.046748 -5.488575,-1.376644 -1.861331,-0.451687 -6.605837,-1.835695 -7.986553,-2.30926 -3.61615,-1.240186 -6.236175,-3.6068 -7.184793,-7.564218 -0.431494,-1.800115 -0.34344,-4.47553 0.267891,-6.839812 0.537503,-2.078942 1.499334,-3.582052 2.253993,-4.579838 2.984038,-4.033974 8.189895,-3.377502 12.391757,-2.138097 1.903693,0.570495 3.541713,0.929083 5.236719,1.245364 l 0.01009,-11.33913 C 46.221732,54.693543 40.343623,53.731816 31.108986,50.809914 28.205031,49.891097 25.170863,48.893731 21.278854,47.520147 14.759759,45.510384 11.266762,39.30718 12.89863,32.616606 c 0.383986,-1.545612 3.118087,-10.406919 14.64363,-6.731547 3.646308,1.383444 7.359991,2.527443 11.090822,3.645054 2.86613,0.857797 5.927229,1.738794 10.135345,2.702895 7.696874,1.860661 15.525275,3.293228 23.400881,4.129104 19.889224,2.145345 19.285959,1.663257 28.834682,1.662804 9.23989,-0.547444 18.64479,-0.804 27.79731,-2.40901 6.10818,-0.669435 12.1033,-2.037834 18.14681,-3.098458 5.09734,-1.045916 10.82667,-2.198534 15.80377,-3.740132 3.83148,-1.001385 7.58289,-2.338803 11.43496,-3.257386 7.63697,-1.742326 11.04736,2.998778 12.43351,6.134462 1.59173,3.853305 1.78912,11.545927 -6.12491,15.390793 -3.60031,1.74913 -6.12019,2.349465 -9.25783,3.107256 -2.27024,0.548271 -19.29636,4.408074 -19.29636,4.408074 l -0.0917,12.598044 c 2.14416,-0.160417 4.3222,-0.520092 6.37889,-1.174021 6.20975,-2.25126 12.32841,-1.608618 15.52731,5.02271 0.62827,1.639057 0.99894,3.550022 0.99471,5.604313 0,2.021698 -0.21132,3.226335 -1.2608,5.46604 -2.55909,5.194455 -8.8566,6.085823 -13.91106,7.115934 -3.70853,0.760934 -5.40516,0.943432 -7.65492,1.171191 l 0.0172,8.064438 c 2.8379,0.553235 5.25921,1.312774 7.71252,2.561886 4.07466,2.083 10.2248,6.35922 12.98139,14.05401 1.20461,3.36272 2.12942,5.27865 2.00798,11.64045 -0.14908,7.81497 -3.39686,12.28088 -4.54792,14.22392 -2.89013,4.87849 -7.42173,7.86877 -9.94542,9.25155 -2.52672,1.44567 -8.27018,1.9472 -8.27018,1.9472 l -0.22765,13.03033 c 0,0 0.40608,10.08605 -10.00552,9.85767 -8.81495,-0.19335 -10.19789,-5.91659 -10.43937,-10.07104 z m 24.24842,-31.71929 c 1.07552,-0.98844 3.80667,-3.02993 3.8793,-7.55094 0.0715,-4.45424 -2.76193,-7.06111 -3.66496,-7.89869 -1.14421,-1.06131 -2.75106,-1.45616 -3.58901,-1.59704 -0.12044,15.06618 -0.14303,19.0436 -0.14303,19.0436 0,0 1.79829,-0.41668 3.5177,-1.99693 z M 94.699206,86.30574 c 7.958314,-1.215648 12.257004,-5.810663 16.767404,-13.445876 0.56896,1.474839 2.19327,4.495446 6.29791,6.04827 2.93783,1.111367 10.91077,-0.170676 12.80064,-9.690341 0.66208,-3.959278 0.71028,-7.004991 0.67025,-11.007369 -7.66611,0.898994 -16.78314,2.410847 -29.66874,2.525178 -12.124456,0.107579 -19.535484,-0.503354 -31.616886,-1.722959 -0.162995,3.183695 -9.99e-4,6.474769 0.533971,9.626118 0.567356,3.879918 2.275475,6.605277 4.356989,9.71629 4.848094,6.272883 12.272336,8.568227 19.857957,7.950699 z m -7.644224,75.68458 c -2.993621,0.0236 -6.719812,-1.85068 -7.216463,-5.99359 -0.57603,-4.80426 -0.389131,-23.12853 -0.389131,-23.12853 0.259723,-12.38167 -0.350599,-19.30863 0.387618,-23.42463 0.558582,-3.11413 3.199483,-5.65305 7.086249,-5.64816 4.778395,0.006 6.737463,2.59847 7.398823,5.69199 0.436637,2.04268 0.337085,12.27671 0.309146,23.09214 -0.02823,11.07186 0.100851,20.26855 -0.386306,23.49648 -0.696663,4.61623 -4.303531,5.8916 -7.189936,5.9143 z m 26.344778,-0.0595 c -2.99352,0.0236 -6.71981,-1.85067 -7.21646,-5.99358 -0.57593,-4.80427 -0.38903,-23.12855 -0.38903,-23.12855 0.25962,-12.38168 -0.3507,-19.30863 0.38751,-23.42463 0.55858,-3.11412 3.19949,-5.65305 7.08635,-5.64816 4.7783,0.006 6.73735,2.59847 7.39873,5.69199 0.43663,2.04269 0.33717,12.27672 0.30913,23.09214 -0.0282,11.07186 0.10109,20.26856 -0.38619,23.4965 -0.69667,4.61623 -4.30364,5.8916 -7.19004,5.91429 z" id="path2-2" sodipodi:nodetypes="ccsccsccssssssccsssssssssssssssccsssssccsssssccscsssccsccsscscssccsscssscsssscscssss" inkscape:label="path2"/></g></svg>